<?xml version="1.0" standalone="no"?>
<!DOCTYPE svg PUBLIC "-//W3C//DTD SVG 20010904//EN"
 "http://www.w3.org/TR/2001/REC-SVG-20010904/DTD/svg10.dtd">
<svg version="1.0" xmlns="http://www.w3.org/2000/svg"
 width="256.000000pt" height="256.000000pt" viewBox="0 0 256.000000 256.000000"
 preserveAspectRatio="xMidYMid meet">
<metadata>
Created by potrace 1.11, written by Peter Selinger 2001-2013
</metadata>
<g transform="translate(0.000000,256.000000) scale(0.100000,-0.100000)"
fill="#000000" stroke="none">
<path d="M542 2530 c3 -21 0 -30 -10 -30 -9 0 -12 -6 -8 -15 3 -8 9 -21 12
-29 4 -11 -2 -14 -25 -14 -17 1 -31 5 -31 10 0 5 -4 6 -10 3 -5 -3 -10 -16
-10 -28 -1 -21 -2 -21 -23 6 -13 15 -26 27 -30 27 -13 0 -7 -35 9 -58 9 -13
13 -26 10 -29 -3 -4 4 -18 16 -31 l23 -25 -22 12 c-28 15 -33 14 -33 -4 0 -9
6 -18 14 -21 8 -3 17 -12 20 -19 3 -10 0 -12 -11 -8 -13 5 -14 3 -3 -17 7 -12
7 -20 2 -16 -6 3 -14 1 -17 -4 -5 -8 -13 -6 -25 5 -22 20 -44 11 -37 -16 3
-10 0 -20 -7 -22 -6 -3 1 -18 19 -37 l30 -32 -32 16 c-32 16 -33 16 -33 -3 0
-21 47 -66 80 -76 11 -3 20 -10 20 -15 0 -16 -28 -18 -50 -3 -16 11 -24 12
-29 4 -5 -8 -13 -7 -27 4 -40 30 -60 9 -27 -27 17 -19 16 -19 -11 -12 -45 11
-30 -25 24 -56 29 -17 45 -33 45 -46 0 -29 -17 -44 -38 -32 -10 5 -26 7 -35 3
-16 -6 -16 -7 0 -19 20 -15 14 -26 -15 -26 -13 0 -17 -5 -13 -16 5 -12 2 -15
-10 -10 -8 3 -17 6 -20 6 -2 0 -1 14 3 32 4 20 3 29 -4 25 -7 -5 -10 10 -8 42
3 68 -4 101 -21 94 -8 -3 -14 0 -14 6 0 6 -7 11 -15 11 -8 0 -15 -5 -15 -11 0
-6 -6 -9 -14 -6 -17 7 -24 -26 -21 -94 2 -30 -1 -46 -7 -43 -6 4 -8 -7 -6 -27
2 -28 0 -34 -17 -34 -11 0 -26 4 -32 8 -16 11 -28 -16 -17 -35 4 -7 -3 -4 -15
6 l-22 20 2 -40 c1 -23 11 -49 23 -63 l21 -24 -23 12 c-19 10 -22 9 -22 -7 0
-10 5 -23 12 -30 9 -9 9 -12 0 -12 -8 0 -11 -122 -12 -479 0 -444 3 -516 25
-481 4 6 10 8 15 5 4 -3 6 5 2 17 -4 16 -2 19 9 13 8 -5 4 3 -8 17 -30 32 -29
41 2 35 24 -4 24 -3 10 13 -8 9 -15 23 -15 31 0 8 -7 23 -15 33 -17 22 -20 56
-6 56 5 0 19 -12 30 -27 20 -27 20 -27 21 -5 0 20 3 22 40 16 l40 -7 -6 32
c-4 17 -2 31 3 31 5 0 9 20 8 45 -3 63 5 97 21 91 7 -3 14 0 16 6 3 7 15 9 31
4 29 -7 42 -48 35 -111 -3 -25 0 -35 10 -35 8 0 12 -6 9 -12 -3 -7 -8 -20 -12
-29 -10 -26 25 -33 42 -9 8 11 23 20 33 20 11 0 24 9 31 21 18 34 33 9 21 -35
-6 -20 -7 -38 -2 -41 5 -3 0 -28 -10 -56 -14 -39 -15 -48 -5 -39 12 10 16 9
21 -4 3 -9 1 -22 -4 -29 -6 -7 -9 -23 -5 -35 4 -18 8 -20 19 -11 17 14 48 3
41 -15 -3 -7 -1 -18 5 -24 7 -7 2 -19 -17 -38 -26 -26 -25 -27 23 -7 19 8 14
-21 -8 -45 -11 -12 -35 -29 -52 -38 -24 -12 -28 -18 -17 -25 9 -5 23 -2 38 7
18 12 25 13 31 4 6 -9 13 -7 29 9 l21 21 37 -22 c31 -19 36 -19 30 -5 -8 22 8
30 24 11 7 -8 20 -19 30 -24 14 -8 16 -6 12 11 -5 18 -2 20 25 16 17 -3 35 -8
40 -11 5 -3 1 11 -9 31 -22 43 -15 61 14 36 21 -18 21 -18 4 7 -22 32 -24 125
-3 117 10 -4 16 2 18 15 4 27 25 35 31 11 3 -10 5 -3 6 15 1 29 21 48 21 20 0
-9 3 -9 12 0 19 19 28 14 28 -17 0 -21 5 -28 18 -27 14 1 17 -8 17 -56 0 -41
2 -52 9 -40 13 24 13 25 26 17 7 -5 4 -18 -11 -43 l-21 -37 21 19 c12 11 22
15 22 10 3 -24 -4 -51 -19 -68 -10 -11 -11 -16 -4 -12 7 4 27 10 44 13 27 4
30 2 25 -16 -4 -17 -2 -19 12 -11 10 5 23 16 31 24 18 22 33 20 25 -4 -5 -15
-3 -19 10 -14 9 4 14 12 12 18 -18 42 -18 46 -6 46 7 0 20 -6 28 -14 9 -8 28
-18 44 -21 22 -6 26 -4 21 9 -5 13 1 16 32 16 l39 0 -43 26 c-23 14 -42 29
-42 35 0 12 7 11 33 -5 32 -21 58 -22 95 -6 41 19 40 26 -3 33 -49 8 -147 56
-139 68 3 6 19 7 36 3 l31 -6 -34 30 c-41 37 -34 51 12 23 42 -26 48 -26 42
-1 -4 16 -2 19 11 14 9 -3 16 -9 16 -13 0 -3 10 -12 21 -20 19 -11 21 -11 16
3 -9 22 5 27 42 16 20 -5 29 -5 25 1 -3 5 -10 23 -14 40 -8 26 -7 30 7 25 11
-5 13 -2 8 11 -4 10 -9 38 -10 61 -3 39 -2 43 16 39 16 -4 19 0 19 24 0 31 9
36 28 17 9 -9 12 -6 12 15 0 15 5 27 10 27 6 0 10 -8 10 -17 1 -17 1 -17 11 0
15 26 29 20 29 -13 0 -21 4 -28 14 -24 19 7 29 -27 22 -79 -5 -36 -4 -39 6
-20 11 24 28 31 28 13 0 -6 -7 -25 -16 -43 -11 -21 -12 -28 -3 -20 31 30 41
-5 13 -45 -8 -12 -14 -22 -12 -22 2 0 18 4 35 9 39 11 56 -5 28 -26 -11 -7
-14 -13 -7 -13 6 0 27 14 47 31 33 30 35 30 35 9 l0 -22 36 21 c41 24 44 25
44 9 0 -7 -12 -22 -27 -35 l-28 -23 33 6 c20 4 32 2 32 -4 0 -14 -86 -57 -131
-67 -50 -11 -53 -16 -24 -31 36 -18 69 -18 107 2 46 24 31 -6 -18 -33 l-39
-23 44 0 c37 0 42 -2 31 -15 -19 -23 15 -19 57 6 62 39 56 -6 -7 -48 -22 -16
-27 -23 -16 -23 27 0 15 -33 -14 -41 -23 -6 -23 -7 -3 -8 12 -1 25 4 28 9 8
13 25 13 25 0 0 -6 -11 -16 -25 -22 -14 -6 -25 -17 -25 -25 0 -10 5 -11 18 -5
23 13 82 13 82 1 0 -6 -4 -19 -10 -29 -8 -14 -5 -19 13 -24 21 -6 21 -7 4 -20
-19 -15 -14 -22 31 -46 22 -11 23 -10 17 9 -8 25 7 28 25 5 8 -8 23 -20 34
-26 19 -10 20 -10 7 5 -11 14 -11 18 4 24 10 3 31 1 48 -5 27 -10 28 -10 15 6
-18 20 -32 72 -20 72 4 0 14 -6 21 -12 10 -10 10 -6 -1 17 -20 43 -18 100 5
99 12 -1 17 6 17 22 0 25 24 34 33 12 3 -7 6 -1 6 15 1 26 21 40 21 15 0 -9 3
-9 12 0 19 19 28 14 28 -17 0 -21 5 -28 18 -27 14 1 17 -8 17 -52 -1 -43 1
-51 11 -38 6 9 14 16 18 16 10 0 7 -38 -4 -45 -5 -3 -10 -11 -10 -17 0 -7 6
-6 15 2 13 10 15 9 15 -9 0 -12 -8 -34 -18 -48 -10 -17 -12 -24 -4 -19 7 4 27
10 44 13 27 4 30 2 25 -16 -5 -19 -4 -19 19 -4 13 8 24 19 24 24 0 5 5 9 10 9
6 0 10 -7 10 -15 0 -19 4 -19 41 1 44 22 50 7 10 -28 -30 -26 -31 -29 -10 -23
36 11 41 11 45 0 5 -12 -95 -61 -146 -71 l-34 -6 38 -20 c42 -21 78 -18 110
10 17 16 18 16 15 -2 -2 -10 -19 -27 -37 -37 -50 -26 -51 -31 -7 -28 33 3 40
1 37 -14 -3 -16 0 -16 30 -4 25 10 32 19 30 35 -4 26 0 27 38 7 18 -9 31 -11
35 -5 4 6 16 4 31 -6 21 -14 24 -15 24 -1 0 8 -15 25 -34 36 -32 20 -46 39
-46 63 0 6 6 8 13 5 47 -20 48 -19 22 7 -19 19 -24 31 -17 38 6 6 8 17 5 24
-7 19 24 29 42 14 12 -10 14 86 14 719 1 654 -1 731 -14 731 -9 0 -29 7 -45
15 -46 24 -35 -1 13 -29 l42 -26 -42 0 c-35 0 -41 -3 -36 -16 5 -13 2 -15 -18
-9 -13 4 -36 16 -51 26 -15 11 -29 16 -32 11 -8 -14 22 -51 57 -69 25 -13 28
-18 15 -21 -29 -6 -20 -31 15 -41 29 -8 30 -9 6 -10 -14 -1 -30 4 -37 11 -6 6
-15 8 -19 4 -5 -4 1 -14 12 -21 34 -24 47 -37 41 -42 -2 -3 -14 1 -25 9 -22
15 -81 12 -81 -4 0 -5 5 -18 10 -29 9 -16 7 -19 -10 -19 -31 0 -19 -24 13 -28
15 -2 27 -9 27 -16 0 -8 13 -19 29 -26 36 -14 52 -55 18 -44 -12 4 -24 9 -27
13 -8 10 -110 10 -110 0 0 -10 -33 -25 -78 -35 -19 -4 -10 5 31 31 66 43 81
78 20 46 -21 -10 -49 -21 -63 -25 -23 -6 -23 -6 -5 5 20 13 50 48 50 61 0 4
15 17 34 30 43 28 54 54 21 45 -17 -4 -20 -3 -11 6 18 18 14 40 -6 32 -10 -4
-27 -8 -39 -9 -11 -2 -26 -6 -32 -10 -7 -4 -17 -4 -23 0 -6 3 3 14 22 26 37
23 60 49 53 60 -3 5 -15 3 -27 -3 -21 -11 -21 -11 -5 7 10 12 14 29 11 47 -6
29 -17 35 -29 15 -5 -7 -10 -3 -16 12 -5 14 -5 27 2 34 15 15 12 29 -6 22 -12
-5 -15 -2 -9 11 4 10 9 47 11 83 4 57 3 62 -9 42 -7 -12 -16 -19 -20 -16 -4 4
-18 -3 -31 -15 -26 -25 -42 -15 -31 19 4 12 2 20 -5 20 -7 0 -10 15 -9 38 2
21 0 43 -5 50 -4 7 -4 12 1 12 4 0 0 5 -9 11 -10 5 -28 7 -41 4 -20 -6 -24
-13 -26 -58 -1 -29 -6 -53 -11 -55 -5 -2 -5 -14 1 -29 9 -25 9 -26 -26 -20
-28 5 -35 3 -35 -11 0 -13 -4 -12 -19 7 -24 31 -39 10 -17 -24 9 -13 16 -30
16 -36 0 -7 8 -18 18 -26 15 -13 15 -13 -4 -4 -28 14 -38 2 -17 -21 11 -13 12
-18 3 -18 -9 0 -10 -3 -1 -14 9 -11 7 -15 -9 -19 -11 -3 -23 -1 -26 4 -10 17
-22 9 -27 -18 -3 -18 1 -35 11 -47 16 -18 16 -18 -5 -7 -12 6 -24 7 -27 2 -7
-10 59 -71 76 -71 9 0 9 -3 1 -11 -8 -8 -17 -8 -32 1 -12 6 -26 8 -32 4 -6 -3
-13 3 -16 15 -7 29 -20 26 -64 -14 -41 -37 -69 -45 -69 -20 0 10 -11 15 -35
15 -19 0 -35 5 -35 11 0 7 -10 9 -25 6 -16 -3 -24 0 -22 7 2 6 25 15 50 20 26
4 47 12 47 17 0 5 12 9 26 9 16 0 24 5 21 13 -2 6 9 16 24 22 33 12 38 29 10
33 -17 3 -18 6 -6 29 8 15 12 30 10 33 -8 13 -68 9 -91 -7 -22 -14 -24 -14
-24 4 0 12 11 23 30 30 18 7 30 19 30 29 0 16 -1 16 -18 1 -10 -10 -32 -17
-48 -16 -27 1 -27 2 9 11 27 7 37 15 35 27 -2 9 -12 15 -23 13 -17 -2 -17 0 5
15 51 37 80 65 80 79 0 20 -14 17 -56 -11 -45 -31 -68 -33 -59 -5 6 18 3 19
-42 15 -52 -6 -53 -7 20 40 17 11 32 26 35 33 3 11 -2 10 -21 -2 -48 -32 -79
-35 -127 -10 l-44 22 39 7 c54 10 176 66 171 79 -4 12 -4 12 -51 0 l-30 -7 40
36 c47 41 41 59 -8 28 -44 -27 -57 -27 -49 1 5 20 2 19 -34 -10 -40 -33 -66
-43 -44 -17 21 25 -1 35 -42 20 -41 -14 -46 -11 -24 14 17 20 29 71 17 71 -5
0 -13 -4 -16 -10 -3 -5 -11 -10 -17 -10 -6 0 -4 8 5 18 19 21 25 54 11 59 -6
2 -15 -7 -21 -19 -8 -18 -10 -10 -9 41 1 41 -3 65 -11 68 -6 2 -13 -4 -16 -14
-3 -10 -5 1 -6 24 -1 44 -17 66 -27 39 -8 -20 -24 -21 -24 -1 0 8 -4 15 -10
15 -5 0 -10 -14 -10 -31 0 -28 -2 -30 -16 -18 -20 17 -36 -5 -29 -41 2 -14 2
-19 -1 -12 -3 6 -12 12 -20 12 -24 0 -18 -92 8 -126 l23 -29 -27 18 c-15 9
-29 17 -32 17 -9 0 14 -63 29 -80 16 -17 14 -17 -26 -4 -47 17 -72 6 -49 -21
23 -28 -6 -16 -35 15 -33 35 -50 39 -42 10 7 -26 -7 -25 -50 1 -49 31 -55 13
-8 -28 l40 -35 -30 8 c-16 3 -32 7 -35 8 -3 0 -7 -3 -10 -9 -6 -13 117 -74
150 -75 49 -1 52 -15 7 -35 -48 -22 -69 -21 -115 6 -43 25 -38 2 5 -26 73 -47
72 -46 20 -40 -45 4 -48 4 -42 -16 6 -18 4 -20 -17 -14 -12 4 -35 15 -50 26
-52 37 -67 15 -19 -29 16 -15 39 -35 52 -45 15 -12 18 -16 7 -13 -10 3 -20 1
-23 -5 -4 -5 -10 -7 -15 -4 -4 3 -36 -8 -71 -24 -35 -16 -80 -32 -99 -35 l-35
-7 31 18 c59 35 114 78 114 92 0 9 -6 11 -17 6 -71 -30 -116 -45 -121 -41 -3
3 4 9 14 13 24 9 60 54 56 69 -1 7 7 15 18 19 26 8 80 54 80 67 0 6 -12 8 -32
4 l-32 -6 23 24 c26 27 14 43 -20 26 -11 -6 -26 -9 -34 -7 -7 3 -22 -1 -34 -9
-14 -10 -26 -12 -37 -6 -13 7 -8 14 30 36 66 38 92 95 31 68 -38 -17 -41 -15
-11 9 23 18 26 26 20 53 -9 45 -14 49 -35 30 -11 -9 -21 -15 -23 -13 -11 11
-9 48 3 63 20 24 -1 45 -25 25 -16 -13 -16 -12 0 13 11 17 19 53 22 105 l4 78
-20 -23 c-11 -13 -23 -21 -28 -18 -5 3 -19 -5 -32 -19 -29 -31 -53 -23 -45 16
4 19 3 29 -5 29 -8 0 -9 10 -5 30 l7 30 -57 0 -57 0 4 -30z m-162 -660 c8 -5
11 -10 5 -10 -5 0 -17 5 -25 10 -8 5 -10 10 -5 10 6 0 17 -5 25 -10z m535
-206 c14 -3 22 -12 21 -22 -4 -22 -27 -28 -38 -9 -5 9 -14 14 -21 11 -8 -3
-13 4 -13 16 0 13 5 19 14 15 8 -3 24 -8 37 -11z m-68 -30 c-3 -3 -12 -4 -19
-1 -8 3 -5 6 6 6 11 1 17 -2 13 -5z m996 -144 c24 -14 34 -27 33 -43 -1 -12 5
-28 14 -35 8 -7 -4 -4 -27 7 -23 12 -44 17 -48 12 -3 -5 -1 -12 5 -16 17 -11
11 -25 -11 -25 -21 0 -21 0 2 -20 l24 -19 -31 8 c-17 5 -41 14 -53 21 -26 14
-39 6 -23 -13 16 -19 5 -27 -32 -26 -30 0 -30 1 -8 11 24 12 24 35 1 30 -8 -2
-30 -6 -49 -9 -33 -5 -34 -5 -15 10 12 10 40 16 67 17 35 0 50 5 60 19 8 11
26 25 41 32 39 18 33 33 -10 26 l-38 -6 25 19 c31 24 32 24 73 0z m-86 -286
c-3 -3 -12 -4 -19 -1 -8 3 -5 6 6 6 11 1 17 -2 13 -5z"/>
<path d="M2460 1911 c0 -5 14 -21 32 -36 l31 -27 -36 7 c-53 10 -45 -6 18 -37
l55 -27 0 59 c0 32 -4 62 -10 65 -5 3 -10 -4 -10 -15 l0 -22 -36 21 c-40 24
-44 25 -44 12z"/>
<path d="M0 526 c0 -20 19 -31 32 -18 7 7 3 14 -11 21 -17 10 -21 9 -21 -3z"/>
<path d="M1045 493 c-20 -15 -19 -15 5 -9 14 3 32 6 40 6 13 0 13 1 0 10 -19
13 -21 12 -45 -7z"/>
<path d="M508 493 c7 -3 16 -2 19 1 4 3 -2 6 -13 5 -11 0 -14 -3 -6 -6z"/>
<path d="M1075 452 c6 -5 24 -12 40 -16 34 -7 15 7 -25 19 -16 5 -22 4 -15 -3z"/>
<path d="M485 424 c-22 -13 -39 -29 -37 -35 2 -6 -4 -19 -13 -29 -15 -16 -14
-18 1 -24 9 -4 27 0 40 9 29 19 44 19 44 0 0 -10 10 -15 33 -15 l32 1 -36 19
c-35 19 -69 50 -53 50 5 -1 20 -7 34 -15 33 -19 60 -18 101 2 l34 17 -55 13
c-30 6 -56 17 -58 22 -5 16 -22 12 -67 -15z"/>
<path d="M1033 439 c-6 -6 -35 -16 -64 -23 l-54 -12 34 -17 c43 -22 63 -22 59
0 -2 13 5 18 31 20 19 2 40 -2 48 -8 7 -7 17 -9 20 -5 4 4 -6 18 -22 31 -35
28 -37 29 -52 14z"/>
<path d="M384 314 c-18 -14 -18 -15 4 -4 12 6 22 13 22 15 0 8 -5 6 -26 -11z"/>
<path d="M490 310 c0 -5 5 -10 10 -10 6 0 10 5 10 10 0 6 -4 10 -10 10 -5 0
-10 -4 -10 -10z"/>
<path d="M1770 299 c0 -9 -18 -20 -47 -28 -89 -24 -91 -26 -29 -41 33 -8 56
-19 56 -26 0 -11 5 -11 25 -2 24 11 24 12 9 30 -18 19 -15 21 26 19 24 -2 25
-1 5 14 -11 8 -26 23 -32 32 -11 14 -13 14 -13 2z"/>
<path d="M410 260 c-40 -22 -34 -25 21 -9 21 7 36 16 33 20 -7 12 -14 11 -54
-11z"/>
<path d="M1110 250 c20 -13 63 -13 55 0 -3 6 -21 10 -38 10 -24 0 -28 -3 -17
-10z"/>
<path d="M1823 178 c-9 -10 -14 -19 -12 -21 55 -33 70 -34 118 -8 l33 18 -61
15 c-57 14 -62 13 -78 -4z"/>
<path d="M1780 95 c-13 -14 -19 -25 -13 -25 6 0 19 -3 28 -7 14 -5 16 -2 11
15 -6 19 -4 20 36 16 42 -5 42 -5 18 10 -35 22 -53 20 -80 -9z"/>
<path d="M1666 65 c-14 -11 -16 -15 -5 -15 28 0 59 12 53 21 -8 13 -26 11 -48
-6z"/>
<path d="M1710 30 c-12 -8 -12 -10 5 -10 11 0 27 5 35 10 12 8 12 10 -5 10
-11 0 -27 -5 -35 -10z"/>
<path d="M2403 25 c-16 -12 -14 -14 19 -20 51 -10 63 -3 28 17 -24 14 -31 14
-47 3z"/>
<path d="M1088 23 c7 -3 16 -2 19 1 4 3 -2 6 -13 5 -11 0 -14 -3 -6 -6z"/>
</g>
</svg>
